%
M48
M72
T01C0.01969
T02C0.03543
T03C0.04000
T04C0.12598
%
T01
X131167Y81000
X141167Y81000
X151167Y81000
X161167Y81000
X171167Y81000
X181167Y81000
X191167Y81000
X201167Y81000
X211167Y81000
X221167Y81000
X231167Y81000
X241167Y81000
X241167Y101000
X231167Y101000
X221167Y101000
X211167Y101000
X201167Y101000
X191167Y101000
X181167Y101000
X171167Y101000
X161167Y101000
X151167Y101000
X141167Y101000
X131167Y101000
X131167Y141000
X141167Y141000
X151167Y141000
X161167Y141000
X171167Y141000
X181167Y141000
X191167Y141000
X201167Y141000
X211167Y141000
X221167Y141000
X231167Y141000
X241167Y141000
X241167Y161000
X231167Y161000
X221167Y161000
X211167Y161000
X201167Y161000
X191167Y161000
X181167Y161000
X171167Y161000
X161167Y161000
X151167Y161000
X141167Y161000
X131167Y161000
T02
X131167Y166000
X121167Y166000
X121167Y156000
X111167Y156000
X111167Y166000
X111167Y176000
X121167Y176000
X131167Y176000
X141167Y176000
X151167Y176000
X161167Y176000
X171167Y176000
X181167Y176000
X191167Y176000
X201167Y176000
X211167Y176000
X221167Y176000
X231167Y176000
X241167Y176000
X241167Y166000
X231167Y166000
X221167Y166000
X211167Y166000
X201167Y166000
X191167Y166000
X181167Y166000
X171167Y166000
X161167Y166000
X151167Y166000
X141167Y166000
X141167Y146000
X151167Y146000
X161167Y146000
X171167Y146000
X181167Y146000
X191167Y146000
X201167Y146000
X211167Y146000
X221167Y146000
X231167Y146000
X241167Y146000
X241167Y186000
X231167Y186000
X221167Y186000
X211167Y186000
X201167Y186000
X191167Y186000
X181167Y186000
X171167Y186000
X161167Y186000
X151167Y186000
X141167Y186000
X131167Y186000
X121167Y186000
X111167Y186000
X101167Y186000
X101167Y176000
X101167Y166000
X101167Y156000
X91167Y156000
X91167Y146000
X91167Y136000
X91167Y126000
X81167Y126000
X71167Y126000
X71167Y136000
X81167Y136000
X81167Y146000
X71167Y146000
X71167Y156000
X81167Y156000
X81167Y166000
X71167Y166000
X71167Y176000
X81167Y176000
X91167Y176000
X91167Y166000
X91167Y186000
X81167Y186000
X71167Y186000
X61167Y186000
X61167Y176000
X61167Y166000
X61167Y156000
X61167Y146000
X61167Y136000
X61167Y126000
X51167Y126000
X51167Y136000
X51167Y146000
X51167Y156000
X51167Y166000
X51167Y176000
X51167Y186000
X41167Y186000
X41167Y176000
X41167Y166000
X41167Y156000
X41167Y146000
X41167Y136000
X41167Y126000
X31167Y126000
X21167Y126000
X21167Y136000
X31167Y136000
X31167Y146000
X21167Y146000
X21167Y156000
X31167Y156000
X31167Y166000
X21167Y166000
X21167Y176000
X31167Y176000
X31167Y186000
X21167Y186000
X11167Y186000
X11167Y176000
X11167Y166000
X11167Y156000
X11167Y146000
X11167Y136000
X11167Y126000
X11167Y116000
X21167Y116000
X31167Y116000
X41167Y116000
X51167Y116000
X61167Y116000
X71167Y116000
X81167Y116000
X91167Y116000
X91167Y106000
X91167Y96000
X91167Y86000
X101167Y86000
X111167Y86000
X121167Y86000
X121167Y76000
X131167Y76000
X141167Y76000
X151167Y76000
X161167Y76000
X171167Y76000
X181167Y76000
X181167Y76000
X191167Y76000
X201167Y76000
X211167Y76000
X221167Y76000
X231167Y76000
X241167Y76000
X241167Y66000
X241167Y56000
X241167Y46000
X231167Y46000
X221167Y46000
X221167Y56000
X231167Y56000
X231167Y66000
X221167Y66000
X211167Y66000
X211167Y56000
X211167Y46000
X201167Y46000
X201167Y56000
X201167Y66000
X191167Y66000
X191167Y56000
X191167Y46000
X181167Y46000
X171167Y46000
X171167Y56000
X181167Y56000
X181167Y66000
X171167Y66000
X161167Y66000
X161167Y56000
X161167Y46000
X151167Y46000
X151167Y56000
X151167Y66000
X141167Y66000
X141167Y56000
X141167Y46000
X131167Y46000
X121167Y46000
X121167Y56000
X131167Y56000
X131167Y66000
X121167Y66000
X111167Y66000
X111167Y56000
X111167Y46000
X101167Y46000
X101167Y56000
X101167Y66000
X101167Y76000
X111167Y76000
X91167Y76000
X91167Y66000
X91167Y56000
X91167Y46000
X81167Y46000
X71167Y46000
X71167Y56000
X81167Y56000
X81167Y66000
X71167Y66000
X71167Y76000
X81167Y76000
X81167Y86000
X71167Y86000
X71167Y96000
X81167Y96000
X81167Y106000
X71167Y106000
X61167Y106000
X61167Y96000
X61167Y86000
X61167Y76000
X61167Y66000
X61167Y56000
X61167Y46000
X51167Y46000
X51167Y56000
X51167Y66000
X51167Y76000
X51167Y86000
X51167Y96000
X51167Y106000
X41167Y106000
X41167Y96000
X41167Y86000
X41167Y76000
X41167Y66000
X41167Y56000
X41167Y46000
X31167Y46000
X21167Y46000
X21167Y56000
X31167Y56000
X31167Y66000
X21167Y66000
X21167Y76000
X31167Y76000
X31167Y86000
X21167Y86000
X21167Y96000
X31167Y96000
X31167Y106000
X21167Y106000
X11167Y106000
X11167Y96000
X11167Y86000
X11167Y76000
X11167Y66000
X11167Y56000
X11167Y46000
X11167Y36000
X21167Y36000
X31167Y36000
X41167Y36000
X51167Y36000
X61167Y36000
X71167Y36000
X81167Y36000
X91167Y36000
X101167Y36000
X111167Y36000
X121167Y36000
X131167Y36000
X141167Y36000
X151167Y36000
X161167Y36000
X171167Y36000
X181167Y36000
X191167Y36000
X201167Y36000
X211167Y36000
X221167Y36000
X231167Y36000
X241167Y36000
X221167Y21000
X221167Y11000
X211167Y11000
X211167Y21000
X201167Y21000
X201167Y11000
X191167Y11000
X191167Y21000
X181167Y21000
X171167Y21000
X171167Y11000
X181167Y11000
X161167Y11000
X161167Y21000
X151167Y21000
X151167Y11000
X141167Y11000
X141167Y21000
X131167Y21000
X121167Y21000
X121167Y11000
X131167Y11000
X111167Y11000
X111167Y21000
X101167Y21000
X101167Y11000
X91167Y11000
X91167Y21000
X81167Y21000
X71167Y21000
X71167Y11000
X81167Y11000
X61167Y11000
X61167Y21000
X51167Y21000
X51167Y11000
X41167Y11000
X41167Y21000
X31167Y21000
X31167Y11000
X131167Y96000
X141167Y96000
X151167Y96000
X161167Y96000
X171167Y96000
X181167Y96000
X191167Y96000
X201167Y96000
X211167Y96000
X221167Y96000
X231167Y96000
X241167Y96000
X241167Y196000
X241167Y206000
X231167Y206000
X221167Y206000
X221167Y196000
X231167Y196000
X211167Y196000
X211167Y206000
X201167Y206000
X201167Y196000
X191167Y196000
X191167Y206000
X181167Y206000
X171167Y206000
X171167Y196000
X181167Y196000
X161167Y196000
X161167Y206000
X151167Y206000
X151167Y196000
X141167Y196000
X141167Y206000
X131167Y206000
X121167Y206000
X121167Y196000
X131167Y196000
X111167Y196000
X111167Y206000
X101167Y206000
X101167Y196000
X91167Y196000
X91167Y206000
X81167Y206000
X71167Y206000
X71167Y196000
X81167Y196000
X61167Y196000
X61167Y206000
X51167Y206000
X51167Y196000
X41167Y196000
X41167Y206000
X31167Y206000
X21167Y206000
X21167Y196000
X31167Y196000
X11167Y196000
X11167Y206000
X31167Y221000
X41167Y221000
X51167Y221000
X61167Y221000
X71167Y221000
X81167Y221000
X91167Y221000
X101167Y221000
X111167Y221000
X121167Y221000
X131167Y221000
X141167Y221000
X151167Y221000
X161167Y221000
X171167Y221000
X181167Y221000
X191167Y221000
X201167Y221000
X211167Y221000
X221167Y221000
X221167Y231000
X211167Y231000
X201167Y231000
X191167Y231000
X181167Y231000
X171167Y231000
X161167Y231000
X151167Y231000
X141167Y231000
X131167Y231000
X121167Y231000
X111167Y231000
X101167Y231000
X91167Y231000
X81167Y231000
X71167Y231000
X61167Y231000
X51167Y231000
X41167Y231000
X31167Y231000
X131167Y146000
T03
X131167Y156000
X141167Y156000
X151167Y156000
X161167Y156000
X171167Y156000
X181167Y156000
X191167Y156000
X201167Y156000
X211167Y156000
X221167Y156000
X231167Y156000
X241167Y156000
X241167Y86000
X231167Y86000
X221167Y86000
X211167Y86000
X201167Y86000
X191167Y86000
X181167Y86000
X171167Y86000
X161167Y86000
X151167Y86000
X141167Y86000
X131167Y86000
T04
X11167Y11000
X241167Y11000
X241167Y231000
X11167Y231000
M30
